<mxfile host="app.diagrams.net" modified="2021-08-30T05:48:59.195Z" agent="5.0 (Windows NT 10.0; Win64; x64) AppleWebKit/537.36 (KHTML, like Gecko) Chrome/92.0.4515.159 Safari/537.36" etag="ZQlB7VhiiQSny1PGi7oX" version="15.0.3" type="github">
  <diagram id="yGA47-unsx4_nyMY4Dtq" name="Page-1">
    <mxGraphModel dx="868" dy="482" grid="1" gridSize="10" guides="1" tooltips="1" connect="1" arrows="1" fold="1" page="1" pageScale="1" pageWidth="850" pageHeight="1100" math="0" shadow="0">
      <root>
        <mxCell id="0" />
        <mxCell id="1" parent="0" />
        <mxCell id="w14rbbDe7qUgThph3Utr-5" value="&lt;h1&gt;Rate Organizations&lt;/h1&gt;" style="text;html=1;strokeColor=none;fillColor=none;spacing=5;spacingTop=-20;whiteSpace=wrap;overflow=hidden;rounded=0;align=center;" parent="1" vertex="1">
          <mxGeometry x="155" y="20" width="540" height="50" as="geometry" />
        </mxCell>
        <mxCell id="w14rbbDe7qUgThph3Utr-6" value="Your rating" style="text;html=1;strokeColor=none;fillColor=none;align=center;verticalAlign=middle;whiteSpace=wrap;rounded=0;" parent="1" vertex="1">
          <mxGeometry x="100" y="165" width="110" height="20" as="geometry" />
        </mxCell>
        <mxCell id="w14rbbDe7qUgThph3Utr-13" value="Your comment" style="text;html=1;strokeColor=none;fillColor=none;align=center;verticalAlign=middle;whiteSpace=wrap;rounded=0;" parent="1" vertex="1">
          <mxGeometry x="120" y="220" width="85" height="20" as="geometry" />
        </mxCell>
        <mxCell id="w14rbbDe7qUgThph3Utr-15" value="" style="rounded=0;whiteSpace=wrap;html=1;" parent="1" vertex="1">
          <mxGeometry x="230" y="220" width="310" height="120" as="geometry" />
        </mxCell>
        <mxCell id="w14rbbDe7qUgThph3Utr-16" value="" style="group" parent="1" vertex="1" connectable="0">
          <mxGeometry x="246" y="170" width="100" height="15" as="geometry" />
        </mxCell>
        <mxCell id="w14rbbDe7qUgThph3Utr-8" value="" style="verticalLabelPosition=bottom;verticalAlign=top;html=1;shape=mxgraph.basic.6_point_star" parent="w14rbbDe7qUgThph3Utr-16" vertex="1">
          <mxGeometry width="20" height="15" as="geometry" />
        </mxCell>
        <mxCell id="w14rbbDe7qUgThph3Utr-9" value="" style="verticalLabelPosition=bottom;verticalAlign=top;html=1;shape=mxgraph.basic.6_point_star" parent="w14rbbDe7qUgThph3Utr-16" vertex="1">
          <mxGeometry x="20" width="20" height="15" as="geometry" />
        </mxCell>
        <mxCell id="w14rbbDe7qUgThph3Utr-10" value="" style="verticalLabelPosition=bottom;verticalAlign=top;html=1;shape=mxgraph.basic.6_point_star" parent="w14rbbDe7qUgThph3Utr-16" vertex="1">
          <mxGeometry x="40" width="20" height="15" as="geometry" />
        </mxCell>
        <mxCell id="w14rbbDe7qUgThph3Utr-11" value="" style="verticalLabelPosition=bottom;verticalAlign=top;html=1;shape=mxgraph.basic.6_point_star" parent="w14rbbDe7qUgThph3Utr-16" vertex="1">
          <mxGeometry x="60" width="20" height="15" as="geometry" />
        </mxCell>
        <mxCell id="w14rbbDe7qUgThph3Utr-12" value="" style="verticalLabelPosition=bottom;verticalAlign=top;html=1;shape=mxgraph.basic.6_point_star" parent="w14rbbDe7qUgThph3Utr-16" vertex="1">
          <mxGeometry x="80" width="20" height="15" as="geometry" />
        </mxCell>
        <mxCell id="w14rbbDe7qUgThph3Utr-19" value="Organization" style="text;html=1;strokeColor=none;fillColor=none;align=center;verticalAlign=middle;whiteSpace=wrap;rounded=0;" parent="1" vertex="1">
          <mxGeometry x="142.5" y="120" width="40" height="20" as="geometry" />
        </mxCell>
        <mxCell id="w14rbbDe7qUgThph3Utr-21" value="Organization to be rated" style="text;html=1;strokeColor=none;fillColor=none;align=center;verticalAlign=middle;whiteSpace=wrap;rounded=0;" parent="1" vertex="1">
          <mxGeometry x="240" y="120" width="140" height="20" as="geometry" />
        </mxCell>
        <mxCell id="w14rbbDe7qUgThph3Utr-22" value="Clear all fields" style="rounded=1;whiteSpace=wrap;html=1;strokeColor=#000000;" parent="1" vertex="1">
          <mxGeometry x="125" y="370" width="120" height="30" as="geometry" />
        </mxCell>
        <mxCell id="w14rbbDe7qUgThph3Utr-23" value="File a Complaint" style="rounded=1;whiteSpace=wrap;html=1;strokeColor=#000000;" parent="1" vertex="1">
          <mxGeometry x="660" y="120" width="120" height="30" as="geometry" />
        </mxCell>
        <mxCell id="w14rbbDe7qUgThph3Utr-24" value="Make Suggestion" style="rounded=1;whiteSpace=wrap;html=1;strokeColor=#000000;" parent="1" vertex="1">
          <mxGeometry x="660" y="180" width="120" height="30" as="geometry" />
        </mxCell>
        <mxCell id="XTmGaMqlaDSN3xeI-CRU-1" value="Submit" style="rounded=1;whiteSpace=wrap;html=1;strokeColor=#000000;" vertex="1" parent="1">
          <mxGeometry x="470" y="370" width="120" height="30" as="geometry" />
        </mxCell>
        <mxCell id="XTmGaMqlaDSN3xeI-CRU-2" value="Search Organization" style="text;html=1;strokeColor=none;fillColor=none;align=center;verticalAlign=middle;whiteSpace=wrap;rounded=0;" vertex="1" parent="1">
          <mxGeometry x="119" y="80" width="125" height="20" as="geometry" />
        </mxCell>
        <mxCell id="XTmGaMqlaDSN3xeI-CRU-3" value="" style="shape=rect;fillColor=#e0e0e0;strokeColor=none;" vertex="1" parent="1">
          <mxGeometry x="240" y="80" width="164" height="20" as="geometry" />
        </mxCell>
        <mxCell id="XTmGaMqlaDSN3xeI-CRU-4" value="" style="html=1;strokeWidth=1;shadow=0;dashed=0;shape=mxgraph.ios7ui.marginRect;rx=3;ry=3;rectMargin=5;strokeColor=none;" vertex="1" parent="XTmGaMqlaDSN3xeI-CRU-3">
          <mxGeometry width="164" height="20" as="geometry" />
        </mxCell>
        <mxCell id="XTmGaMqlaDSN3xeI-CRU-5" value="Search" style="shape=mxgraph.ios7.icons.looking_glass;strokeColor=#e0e0e0;fillColor=none;fontColor=#e0e0e0;labelPosition=right;verticalLabelPosition=middle;align=left;verticalAlign=middle;fontSize=6;fontStyle=0;spacingTop=2;" vertex="1" parent="XTmGaMqlaDSN3xeI-CRU-3">
          <mxGeometry x="0.5" y="0.5" width="6" height="6" relative="1" as="geometry">
            <mxPoint x="-17" y="-3" as="offset" />
          </mxGeometry>
        </mxCell>
      </root>
    </mxGraphModel>
  </diagram>
</mxfile>
